<svg xmlns="http://www.w3.org/2000/svg" version="1.1" xmlns:xlink="http://www.w3.org/1999/xlink" xmlns:svgjs="http://svgjs.dev/svgjs" viewBox="0 0 800 800" opacity="0.46"><g stroke-width="5" stroke="hsl(335, 77%, 50%)" fill="none" stroke-linecap="butt" data-darkreader-inline-stroke="" style="--darkreader-inline-stroke: #e5347d;"><line x1="0" y1="0" x2="90" y2="90" opacity="1.00"></line><line x1="90" y1="0" x2="180" y2="90" opacity="0.07"></line><line x1="270" y1="0" x2="180" y2="90" opacity="0.24"></line><line x1="270" y1="0" x2="360" y2="90" opacity="0.62"></line><line x1="360" y1="0" x2="450" y2="90" opacity="0.52"></line><line x1="450" y1="0" x2="540" y2="90" opacity="0.78"></line><line x1="540" y1="0" x2="630" y2="90" opacity="0.32"></line><line x1="720" y1="0" x2="630" y2="90" opacity="0.53"></line><line x1="720" y1="0" x2="810" y2="90" opacity="0.16"></line><line x1="0" y1="90" x2="90" y2="180" opacity="0.09"></line><line x1="90" y1="90" x2="180" y2="180" opacity="0.75"></line><line x1="270" y1="90" x2="180" y2="180" opacity="0.44"></line><line x1="270" y1="90" x2="360" y2="180" opacity="0.10"></line><line x1="360" y1="90" x2="450" y2="180" opacity="0.58"></line><line x1="540" y1="90" x2="450" y2="180" opacity="0.50"></line><line x1="540" y1="90" x2="630" y2="180" opacity="0.09"></line><line x1="630" y1="90" x2="720" y2="180" opacity="0.12"></line><line x1="720" y1="90" x2="810" y2="180" opacity="0.12"></line><line x1="0" y1="180" x2="90" y2="270" opacity="0.78"></line><line x1="180" y1="180" x2="90" y2="270" opacity="0.66"></line><line x1="270" y1="180" x2="180" y2="270" opacity="0.53"></line><line x1="360" y1="180" x2="270" y2="270" opacity="0.80"></line><line x1="450" y1="180" x2="360" y2="270" opacity="0.90"></line><line x1="450" y1="180" x2="540" y2="270" opacity="0.31"></line><line x1="540" y1="180" x2="630" y2="270" opacity="0.26"></line><line x1="630" y1="180" x2="720" y2="270" opacity="0.38"></line><line x1="720" y1="180" x2="810" y2="270" opacity="0.84"></line><line x1="0" y1="270" x2="90" y2="360" opacity="0.36"></line><line x1="90" y1="270" x2="180" y2="360" opacity="0.37"></line><line x1="180" y1="270" x2="270" y2="360" opacity="0.25"></line><line x1="360" y1="270" x2="270" y2="360" opacity="0.37"></line><line x1="360" y1="270" x2="450" y2="360" opacity="0.28"></line><line x1="540" y1="270" x2="450" y2="360" opacity="0.42"></line><line x1="630" y1="270" x2="540" y2="360" opacity="0.79"></line><line x1="630" y1="270" x2="720" y2="360" opacity="0.16"></line><line x1="810" y1="270" x2="720" y2="360" opacity="0.50"></line><line x1="0" y1="360" x2="90" y2="450" opacity="0.64"></line><line x1="90" y1="360" x2="180" y2="450" opacity="0.86"></line><line x1="180" y1="360" x2="270" y2="450" opacity="0.94"></line><line x1="270" y1="360" x2="360" y2="450" opacity="0.30"></line><line x1="360" y1="360" x2="450" y2="450" opacity="0.63"></line><line x1="540" y1="360" x2="450" y2="450" opacity="0.62"></line><line x1="540" y1="360" x2="630" y2="450" opacity="0.86"></line><line x1="630" y1="360" x2="720" y2="450" opacity="0.98"></line><line x1="810" y1="360" x2="720" y2="450" opacity="0.62"></line><line x1="90" y1="450" x2="0" y2="540" opacity="0.31"></line><line x1="90" y1="450" x2="180" y2="540" opacity="0.39"></line><line x1="270" y1="450" x2="180" y2="540" opacity="0.56"></line><line x1="270" y1="450" x2="360" y2="540" opacity="0.92"></line><line x1="360" y1="450" x2="450" y2="540" opacity="0.65"></line><line x1="450" y1="450" x2="540" y2="540" opacity="0.78"></line><line x1="540" y1="450" x2="630" y2="540" opacity="0.19"></line><line x1="720" y1="450" x2="630" y2="540" opacity="0.33"></line><line x1="720" y1="450" x2="810" y2="540" opacity="0.41"></line><line x1="90" y1="540" x2="0" y2="630" opacity="0.97"></line><line x1="90" y1="540" x2="180" y2="630" opacity="0.43"></line><line x1="270" y1="540" x2="180" y2="630" opacity="0.31"></line><line x1="270" y1="540" x2="360" y2="630" opacity="0.36"></line><line x1="450" y1="540" x2="360" y2="630" opacity="0.85"></line><line x1="450" y1="540" x2="540" y2="630" opacity="0.48"></line><line x1="540" y1="540" x2="630" y2="630" opacity="0.11"></line><line x1="630" y1="540" x2="720" y2="630" opacity="0.48"></line><line x1="720" y1="540" x2="810" y2="630" opacity="0.23"></line><line x1="0" y1="630" x2="90" y2="720" opacity="0.57"></line><line x1="90" y1="630" x2="180" y2="720" opacity="0.26"></line><line x1="270" y1="630" x2="180" y2="720" opacity="0.65"></line><line x1="270" y1="630" x2="360" y2="720" opacity="0.59"></line><line x1="450" y1="630" x2="360" y2="720" opacity="0.48"></line><line x1="450" y1="630" x2="540" y2="720" opacity="0.45"></line><line x1="540" y1="630" x2="630" y2="720" opacity="0.12"></line><line x1="630" y1="630" x2="720" y2="720" opacity="0.85"></line><line x1="810" y1="630" x2="720" y2="720" opacity="0.55"></line><line x1="0" y1="720" x2="90" y2="810" opacity="0.44"></line><line x1="180" y1="720" x2="90" y2="810" opacity="0.53"></line><line x1="270" y1="720" x2="180" y2="810" opacity="0.78"></line><line x1="360" y1="720" x2="270" y2="810" opacity="0.56"></line><line x1="450" y1="720" x2="360" y2="810" opacity="0.50"></line><line x1="540" y1="720" x2="450" y2="810" opacity="0.09"></line><line x1="630" y1="720" x2="540" y2="810" opacity="0.44"></line><line x1="720" y1="720" x2="630" y2="810" opacity="0.11"></line><line x1="810" y1="720" x2="720" y2="810" opacity="0.53"></line></g></svg>